P3
# Created by GIMP version 2.10.34 PNM plug-in
80 80
255
0
0
0
0
0
0
0
0
0
0
0
0
0
0
0
0
0
0
0
0
0
0
0
0
0
0
0
0
0
0
0
0
0
0
0
0
0
0
0
0
0
0
0
0
0
0
0
0
0
0
0
0
0
0
0
0
0
0
0
0
0
0
0
0
0
0
0
0
0
0
0
0
0
0
0
0
0
0
0
0
0
0
0
0
0
0
0
0
0
0
0
0
0
0
0
0
0
0
0
0
0
0
0
0
0
0
0
0
0
0
0
0
0
0
0
0
0
4
39
50
4
39
50
0
0
0
0
0
0
0
0
0
0
0
0
0
0
0
0
0
0
0
0
0
0
0
0
0
0
0
0
0
0
0
0
0
0
0
0
0
0
0
0
0
0
0
0
0
0
0
0
0
0
0
0
0
0
0
0
0
0
0
0
0
0
0
0
0
0
0
0
0
0
0
0
0
0
0
0
0
0
0
0
0
0
0
0
0
0
0
0
0
0
0
0
0
0
0
0
0
0
0
0
0
0
0
0
0
0
0
0
0
0
0
0
0
0
0
0
0
0
0
0
0
0
0
0
0
0
0
0
0
0
0
0
0
0
0
0
0
0
0
0
0
0
0
0
0
0
0
0
0
0
0
0
0
0
0
0
0
0
0
0
0
0
0
0
0
0
0
0
0
0
0
0
0
0
0
0
0
0
0
0
0
0
0
0
0
0
0
0
0
0
0
0
0
0
0
0
0
0
0
0
0
0
0
0
0
0
0
0
0
0
0
0
0
0
0
0
0
0
0
0
0
0
0
0
0
0
0
0
0
0
0
0
0
0
12
119
152
12
117
148
0
0
0
0
0
0
0
0
0
0
0
0
0
0
0
0
0
0
0
0
0
0
0
0
0
0
0
0
0
0
0
0
0
0
0
0
0
0
0
0
0
0
0
0
0
0
0
0
0
0
0
0
0
0
0
0
0
0
0
0
0
0
0
0
0
0
0
0
0
0
0
0
0
0
0
0
0
0
0
0
0
0
0
0
0
0
0
0
0
0
0
0
0
0
0
0
0
0
0
0
0
0
0
0
0
0
0
0
0
0
0
0
0
0
0
0
0
0
0
0
0
0
0
0
0
0
0
0
0
0
0
0
0
0
0
0
0
0
0
0
0
0
0
0
0
0
0
0
0
0
0
0
0
0
0
0
0
0
0
0
0
0
0
0
0
0
0
0
0
0
0
0
0
0
0
0
0
0
0
0
0
0
0
0
0
0
0
0
0
0
0
0
0
0
0
0
0
0
0
0
0
0
0
0
0
0
0
0
0
0
0
0
0
0
0
0
0
0
0
0
0
0
0
0
0
0
0
0
0
0
0
3
35
44
18
161
204
18
161
204
3
35
44
0
0
0
0
0
0
0
0
0
0
0
0
0
0
0
0
0
0
0
0
0
0
0
0
0
0
0
0
0
0
0
0
0
0
0
0
0
0
0
0
0
0
0
0
0
0
0
0
0
0
0
0
0
0
0
0
0
0
0
0
0
0
0
0
0
0
0
0
0
0
0
0
0
0
0
0
0
0
0
0
0
0
0
0
0
0
0
0
0
0
0
0
0
0
0
0
0
0
0
0
0
0
0
0
0
0
0
0
0
0
0
0
0
0
0
0
0
0
0
0
0
0
0
0
0
0
0
0
0
0
0
0
0
0
0
0
0
0
0
0
0
0
0
0
0
0
0
0
0
0
0
0
0
0
0
0
0
0
0
0
0
0
0
0
0
0
0
0
0
0
0
0
0
0
0
0
0
0
0
0
0
0
0
0
0
0
0
0
0
0
0
0
0
0
0
0
0
0
0
0
0
0
0
0
0
0
0
0
0
0
0
0
0
0
0
0
0
0
0
0
0
0
0
0
0
0
0
0
12
117
148
27
165
206
27
165
206
12
117
148
0
0
0
0
0
0
0
0
0
0
0
0
0
0
0
0
0
0
0
0
0
0
0
0
0
0
0
0
0
0
0
0
0
0
0
0
0
0
0
0
0
0
0
0
0
0
0
0
0
0
0
0
0
0
0
0
0
0
0
0
0
0
0
0
0
0
0
0
0
0
0
0
0
0
0
0
0
0
0
0
0
0
0
0
0
0
0
0
0
0
0
0
0
0
0
0
0
0
0
0
0
0
0
0
0
0
0
0
0
0
0
0
0
0
0
0
0
0
0
0
0
0
0
0
0
0
0
0
0
0
0
0
0
0
0
0
0
0
0
0
0
0
0
0
0
0
0
0
0
0
0
0
0
0
0
0
0
0
0
0
0
0
0
0
0
0
0
0
0
0
0
0
0
0
0
0
0
0
0
0
0
0
0
0
0
0
0
0
0
0
0
0
0
0
0
0
0
0
0
0
0
0
0
0
0
0
0
0
0
0
0
0
0
0
0
0
0
0
0
0
0
0
0
0
0
3
31
40
17
158
202
27
165
206
27
165
206
18
161
204
3
35
44
0
0
0
0
0
0
0
0
0
0
0
0
0
0
0
0
0
0
0
0
0
0
0
0
0
0
0
0
0
0
0
0
0
0
0
0
0
0
0
0
0
0
0
0
0
0
0
0
0
0
0
0
0
0
0
0
0
0
0
0
0
0
0
0
0
0
0
0
0
0
0
0
0
0
0
0
0
0
0
0
0
0
0
0
0
0
0
0
0
0
0
0
0
0
0
0
0
0
0
0
0
0
0
0
0
0
0
0
0
0
0
0
0
0
0
0
0
0
0
0
0
0
0
0
0
0
0
0
0
0
0
0
0
0
0
0
0
0
0
0
0
0
0
0
0
0
0
0
0
0
0
0
0
0
0
0
0
0
0
0
0
0
0
0
0
0
0
0
0
0
0
0
0
0
0
0
0
0
0
0
0
0
0
0
0
0
0
0
0
0
0
0
0
0
0
0
0
0
0
0
0
0
0
0
0
0
0
0
0
0
0
0
0
0
0
0
0
0
0
0
0
0
11
109
138
18
161
204
33
165
206
27
165
206
27
165
206
11
109
138
0
0
0
0
0
0
0
0
0
0
0
0
0
0
0
0
0
0
0
0
0
0
0
0
0
0
0
0
0
0
0
0
0
0
0
0
0
0
0
0
0
0
0
0
0
0
0
0
0
0
0
0
0
0
0
0
0
0
0
0
0
0
0
0
0
0
0
0
0
0
0
0
0
0
0
0
0
0
0
0
0
0
0
0
0
0
0
0
0
0
0
0
0
0
0
0
0
0
0
0
0
0
0
0
0
0
0
0
0
0
0
0
0
0
0
0
0
0
0
0
0
0
0
0
0
0
0
0
0
0
0
0
0
0
0
0
0
0
0
0
0
0
0
0
0
0
0
0
0
0
0
0
0
0
0
0
0
0
0
0
0
0
0
0
0
0
0
0
0
0
0
0
0
0
0
0
0
0
0
0
0
0
0
0
0
0
0
0
0
0
0
0
0
0
0
0
0
0
0
0
0
0
0
0
0
0
0
0
0
0
0
0
0
0
0
0
0
0
0
3
28
35
17
158
202
18
161
204
38
169
209
27
165
206
27
165
206
18
161
204
3
28
35
0
0
0
0
0
0
0
0
0
0
0
0
0
0
0
0
0
0
0
0
0
0
0
0
0
0
0
0
0
0
0
0
0
0
0
0
0
0
0
0
0
0
0
0
0
0
0
0
0
0
0
0
0
0
0
0
0
0
0
0
0
0
0
0
0
0
0
0
0
0
0
0
0
0
0
0
0
0
0
0
0
0
0
0
0
0
0
0
0
0
0
0
0
0
0
0
0
0
0
0
0
0
0
0
0
0
0
0
0
0
0
0
0
0
0
0
0
0
0
0
0
0
0
0
0
0
0
0
0
0
0
0
0
0
0
0
0
0
0
0
0
0
0
0
0
0
0
0
0
0
0
0
0
0
0
0
0
0
0
0
0
0
0
0
0
0
0
0
0
0
0
0
0
0
0
0
0
0
0
0
0
0
0
0
0
0
0
0
0
0
0
0
0
0
0
0
0
0
0
0
0
0
0
0
0
0
0
0
0
0
0
0
0
0
0
0
11
105
134
18
161
204
18
161
204
38
169
209
34
167
208
27
165
206
27
165
206
11
105
134
0
0
0
0
0
0
0
0
0
0
0
0
0
0
0
0
0
0
0
0
0
0
0
0
0
0
0
0
0
0
0
0
0
0
0
0
0
0
0
0
0
0
0
0
0
0
0
0
0
0
0
0
0
0
0
0
0
0
0
0
0
0
0
0
0
0
0
0
0
0
0
0
0
0
0
0
0
0
0
0
0
0
0
0
0
0
0
0
0
0
0
0
0
0
0
0
0
0
0
0
0
0
0
0
0
0
0
0
0
0
0
0
0
0
0
0
0
0
0
0
0
0
0
0
0
0
0
0
0
0
0
0
0
0
0
0
0
0
0
0
0
0
0
0
0
0
0
0
0
0
0
0
0
0
0
0
0
0
0
0
0
0
0
0
0
0
0
0
0
0
0
0
0
0
0
0
0
0
0
0
0
0
0
0
0
0
0
0
0
0
0
0
0
0
0
0
0
0
0
0
0
0
0
0
0
0
0
0
0
0
0
0
0
2
24
31
17
158
202
18
161
204
27
165
206
43
171
210
38
169
209
27
165
206
27
165
206
18
161
204
2
24
31
0
0
0
0
0
0
0
0
0
0
0
0
0
0
0
0
0
0
0
0
0
0
0
0
0
0
0
0
0
0
0
0
0
0
0
0
0
0
0
0
0
0
0
0
0
0
0
0
0
0
0
0
0
0
0
0
0
0
0
0
0
0
0
0
0
0
0
0
0
0
0
0
0
0
0
0
0
0
0
0
0
0
0
0
0
0
0
0
0
0
0
0
0
0
0
0
0
0
0
0
0
0
0
0
0
0
0
0
0
0
0
0
0
0
0
0
0
0
0
0
0
0
0
0
0
0
0
0
0
0
0
0
0
0
0
0
0
0
0
0
0
0
0
0
0
0
0
0
0
0
0
0
0
0
0
0
0
0
0
0
0
0
0
0
0
0
0
0
0
0
0
0
0
0
0
0
0
0
0
0
0
0
0
0
0
0
0
0
0
0
0
0
0
0
0
0
0
0
0
0
0
0
0
0
0
0
0
0
0
0
10
102
130
18
161
204
18
161
204
34
167
208
43
171
210
38
169
209
34
167
208
27
165
206
27
165
206
10
102
130
0
0
0
0
0
0
0
0
0
0
0
0
0
0
0
0
0
0
0
0
0
0
0
0
0
0
0
0
0
0
0
0
0
0
0
0
0
0
0
0
0
0
0
0
0
0
0
0
0
0
0
0
0
0
0
0
0
0
0
0
0
0
0
0
0
0
0
0
0
0
0
0
0
0
0
0
0
0
0
0
0
0
0
0
0
0
0
0
0
0
0
0
0
0
0
0
0
0
0
0
0
0
0
0
0
0
0
0
0
0
0
0
0
0
0
0
0
0
0
0
0
0
0
0
0
0
0
0
0
0
0
0
0
0
0
0
0
0
0
0
0
0
0
0
0
0
0
0
0
0
0
0
0
0
0
0
0
0
0
0
0
0
0
0
0
0
0
0
0
0
0
0
0
0
0
0
0
0
0
0
0
0
0
0
0
0
0
0
0
0
0
0
0
0
0
0
0
0
0
0
0
0
0
0
0
0
0
2
21
27
17
158
202
18
161
204
18
161
204
43
171
210
43
171
210
43
171
210
38
169
209
27
165
206
27
165
206
18
161
204
2
24
31
0
0
0
0
0
0
0
0
0
0
0
0
0
0
0
0
0
0
0
0
0
0
0
0
0
0
0
0
0
0
0
0
0
0
0
0
0
0
0
0
0
0
0
0
0
0
0
0
0
0
0
0
0
0
0
0
0
0
0
0
0
0
0
0
0
0
0
0
0
0
0
0
0
0
0
0
0
0
0
0
0
0
0
0
0
0
0
0
0
0
0
0
0
0
0
0
0
0
0
0
0
0
0
0
0
0
0
0
0
0
0
0
0
0
0
0
0
0
0
0
0
0
0
0
0
0
0
0
0
0
0
0
0
0
0
0
0
0
0
0
0
0
0
0
0
0
0
0
0
0
0
0
0
0
0
0
0
0
0
0
0
0
0
0
0
0
0
0
0
0
0
0
0
0
0
0
0
0
0
0
0
0
0
0
0
0
0
0
0
0
0
0
0
0
0
0
0
0
0
0
0
0
0
0
10
98
124
18
161
204
18
161
204
18
161
204
51
174
211
51
174
211
43
171
210
38
169
209
34
167
208
27
165
206
27
165
206
10
98
124
0
0
0
0
0
0
0
0
0
0
0
0
0
0
0
0
0
0
0
0
0
0
0
0
0
0
0
0
0
0
0
0
0
0
0
0
0
0
0
0
0
0
0
0
0
0
0
0
0
0
0
0
0
0
0
0
0
0
0
0
0
0
0
0
0
0
0
0
0
0
0
0
0
0
0
0
0
0
0
0
0
0
0
0
0
0
0
0
0
0
0
0
0
0
0
0
0
0
0
0
0
0
0
0
0
0
0
0
0
0
0
0
0
0
0
0
0
0
0
0
0
0
0
0
0
0
0
0
0
0
0
0
0
0
0
0
0
0
0
0
0
0
0
0
0
0
0
0
0
0
0
0
0
0
0
0
0
0
0
0
0
0
0
0
0
0
0
0
0
0
0
0
0
0
0
0
0
0
0
0
0
0
0
0
0
0
0
0
0
0
0
0
0
0
0
0
0
0
0
0
0
2
18
22
17
155
197
18
161
204
18
161
204
18
161
204
55
176
212
51
174
211
43
171
210
43
171
210
38
169
209
27
165
206
27
165
206
17
158
202
2
21
27
0
0
0
0
0
0
0
0
0
0
0
0
0
0
0
0
0
0
0
0
0
0
0
0
0
0
0
0
0
0
0
0
0
0
0
0
0
0
0
0
0
0
0
0
0
0
0
0
0
0
0
0
0
0
0
0
0
0
0
0
0
0
0
0
0
0
0
0
0
0
0
0
0
0
0
0
0
0
0
0
0
0
0
0
0
0
0
0
0
0
0
0
0
0
0
0
0
0
0
0
0
0
0
0
0
0
0
0
0
0
0
0
0
0
0
0
0
0
0
0
0
0
0
0
0
0
0
0
0
0
0
0
0
0
0
0
0
0
0
0
0
0
0
0
0
0
0
0
0
0
0
0
0
0
0
0
0
0
0
0
0
0
0
0
0
0
0
0
0
0
0
0
0
0
0
0
0
0
0
0
0
0
0
0
0
0
0
0
0
0
0
0
0
0
0
0
0
0
9
94
120
18
161
204
18
161
204
18
161
204
27
165
206
59
177
213
55
176
212
51
174
211
43
171
210
38
169
209
34
167
208
27
165
206
18
161
204
9
94
120
0
0
0
0
0
0
0
0
0
0
0
0
0
0
0
0
0
0
0
0
0
0
0
0
0
0
0
0
0
0
0
0
0
0
0
0
0
0
0
0
0
0
0
0
0
0
0
0
0
0
0
0
0
0
0
0
0
0
0
0
0
0
0
0
0
0
0
0
0
0
0
0
0
0
0
0
0
0
0
0
0
0
0
0
0
0
0
0
0
0
0
0
0
0
0
0
0
0
0
0
0
0
0
0
0
0
0
0
0
0
0
0
0
0
0
0
0
0
0
0
0
0
0
0
0
0
0
0
0
0
0
0
0
0
0
0
0
0
0
0
0
0
0
0
0
0
0
0
0
0
0
0
0
0
0
0
0
0
0
0
0
0
0
0
0
0
0
0
0
0
0
0
0
0
0
0
0
0
0
0
0
0
0
0
0
0
0
0
0
0
0
0
0
0
0
1
14
17
15
153
196
18
161
204
18
161
204
18
161
204
34
167
208
59
177
213
55
176
212
51
174
211
43
171
210
43
171
210
38
169
209
27
165
206
27
165
206
17
155
197
2
18
22
0
0
0
0
0
0
0
0
0
0
0
0
0
0
0
0
0
0
0
0
0
0
0
0
0
0
0
0
0
0
0
0
0
0
0
0
0
0
0
0
0
0
0
0
0
0
0
0
0
0
0
0
0
0
0
0
0
0
0
0
0
0
0
0
0
0
0
0
0
0
0
0
0
0
0
0
0
0
0
0
0
0
0
0
0
0
0
0
0
0
0
0
0
0
0
0
0
0
0
0
0
0
0
0
0
0
0
0
0
0
0
0
0
0
0
0
0
0
0
0
0
0
0
0
0
0
0
0
0
0
0
0
0
0
0
0
0
0
0
0
0
0
0
0
0
0
0
0
0
0
0
0
0
0
0
0
0
0
0
0
0
0
0
0
0
0
0
0
0
0
0
0
0
0
0
0
0
0
0
0
0
0
0
0
0
0
0
0
0
0
0
0
9
90
115
18
161
204
18
161
204
18
161
204
18
161
204
43
171
210
67
180
215
59
177
213
51
174
211
51
174
211
43
171
210
38
169
209
34
167
208
27
165
206
18
161
204
9
90
115
0
0
0
0
0
0
0
0
0
0
0
0
0
0
0
0
0
0
0
0
0
0
0
0
0
0
0
0
0
0
0
0
0
0
0
0
0
0
0
0
0
0
0
0
0
0
0
0
0
0
0
0
0
0
0
0
0
0
0
0
0
0
0
0
0
0
0
0
0
0
0
0
0
0
0
0
0
0
0
0
0
0
0
0
0
0
0
0
0
0
0
0
0
0
0
0
0
0
0
0
0
0
0
0
0
0
0
0
0
0
0
0
0
0
0
0
0
0
0
0
0
0
0
0
0
0
0
0
0
0
0
0
0
0
0
0
0
0
0
0
0
0
0
0
0
0
0
0
0
0
0
0
0
0
0
0
0
0
0
0
0
0
0
0
0
0
0
0
0
0
0
0
0
0
0
0
0
0
0
0
0
0
0
0
0
0
0
0
0
1
14
17
15
151
193
18
161
204
18
161
204
18
161
204
18
161
204
51
174
211
67
180
215
59
177
213
55
176
212
51
174
211
43
171
210
43
171
210
38
169
209
27
165
206
27
165
206
17
155
197
1
14
17
0
0
0
0
0
0
0
0
0
0
0
0
0
0
0
0
0
0
0
0
0
0
0
0
0
0
0
0
0
0
0
0
0
0
0
0
0
0
0
0
0
0
0
0
0
0
0
0
0
0
0
0
0
0
0
0
0
0
0
0
0
0
0
0
0
0
0
0
0
0
0
0
0
0
0
0
0
0
0
0
0
0
0
0
0
0
0
0
0
0
0
0
0
0
0
0
0
0
0
0
0
0
0
0
0
0
0
0
0
0
0
0
0
0
0
0
0
0
0
0
0
0
0
0
0
0
0
0
0
0
0
0
0
0
0
0
0
0
0
0
0
0
0
0
0
0
0
0
0
0
0
0
0
0
0
0
0
0
0
0
0
0
0
0
0
0
0
0
0
0
0
0
0
0
0
0
0
0
0
0
0
0
0
0
0
0
9
88
111
18
161
204
18
161
204
18
161
204
18
161
204
18
161
204
67
180
215
70
182
216
67
180
215
59
177
213
51
174
211
51
174
211
43
171
210
38
169
209
34
167
208
27
165
206
18
161
204
9
84
107
0
0
0
0
0
0
0
0
0
0
0
0
0
0
0
0
0
0
0
0
0
0
0
0
0
0
0
0
0
0
0
0
0
0
0
0
0
0
0
0
0
0
0
0
0
0
0
0
0
0
0
0
0
0
0
0
0
0
0
0
0
0
0
0
0
0
0
0
0
0
0
0
0
0
0
0
0
0
0
0
0
0
0
0
0
0
0
0
0
0
0
0
0
0
0
0
0
0
0
0
0
0
0
0
0
0
0
0
0
0
0
0
0
0
0
0
0
0
0
0
0
0
0
0
0
0
0
0
0
0
0
0
0
0
0
0
0
0
0
0
0
0
0
0
0
0
0
0
0
0
0
0
0
0
0
0
0
0
0
0
0
0
0
0
0
0
0
0
0
0
0
0
0
0
0
0
0
0
0
0
0
0
0
1
11
13
15
151
193
18
161
204
18
161
204
18
161
204
18
161
204
18
161
204
77
184
217
73
183
216
67
180
215
59
177
213
55
176
212
51
174
211
43
171
210
43
171
210
38
169
209
27
165
206
27
165
206
17
155
197
1
14
17
0
0
0
0
0
0
0
0
0
0
0
0
0
0
0
0
0
0
0
0
0
0
0
0
0
0
0
0
0
0
0
0
0
0
0
0
0
0
0
0
0
0
0
0
0
0
0
0
0
0
0
0
0
0
0
0
0
0
0
0
0
0
0
0
0
0
0
0
0
0
0
0
0
0
0
0
0
0
0
0
0
0
0
0
0
0
0
0
0
0
0
0
0
0
0
0
0
0
0
0
0
0
0
0
0
0
0
0
0
0
0
0
0
0
0
0
0
0
0
0
0
0
0
0
0
0
0
0
0
0
0
0
0
0
0
0
0
0
0
0
0
0
0
0
0
0
0
0
0
0
0
0
0
0
0
0
0
0
0
0
0
0
0
0
0
0
0
0
0
0
0
0
0
0
0
0
0
0
0
0
9
84
107
18
161
204
18
161
204
18
161
204
18
161
204
18
161
204
27
165
206
83
186
218
77
184
217
70
182
216
67
180
215
59
177
213
51
174
211
51
174
211
43
171
210
38
169
209
34
167
208
27
165
206
18
161
204
8
80
102
0
0
0
0
0
0
0
0
0
0
0
0
0
0
0
0
0
0
0
0
0
0
0
0
0
0
0
0
0
0
0
0
0
0
0
0
0
0
0
0
0
0
0
0
0
0
0
0
0
0
0
0
0
0
0
0
0
0
0
0
0
0
0
0
0
0
0
0
0
0
0
0
0
0
0
0
0
0
0
0
0
0
0
0
0
0
0
0
0
0
0
0
0
0
0
0
0
0
0
0
0
0
0
0
0
0
0
0
0
0
0
0
0
0
0
0
0
0
0
0
0
0
0
0
0
0
0
0
0
0
0
0
0
0
0
0
0
0
0
0
0
0
0
0
0
0
0
0
0
0
0
0
0
0
0
0
0
0
0
0
0
0
0
0
0
0
0
0
0
0
0
0
0
0
0
0
0
1
11
13
14
146
186
18
161
204
18
161
204
18
161
204
18
161
204
18
161
204
38
169
209
83
186
218
83
186
218
73
183
216
67
180
215
59
177
213
55
176
212
51
174
211
43
171
210
38
169
209
38
169
209
27
165
206
27
165
206
17
155
197
1
11
13
0
0
0
0
0
0
0
0
0
0
0
0
0
0
0
0
0
0
0
0
0
0
0
0
0
0
0
0
0
0
0
0
0
0
0
0
0
0
0
0
0
0
0
0
0
0
0
0
0
0
0
0
0
0
0
0
0
0
0
0
0
0
0
0
0
0
0
0
0
0
0
0
0
0
0
0
0
0
0
0
0
0
0
0
0
0
0
0
0
0
0
0
0
0
0
0
0
0
0
0
0
0
0
0
0
0
0
0
0
0
0
0
0
0
0
0
0
0
0
0
0
0
0
0
0
0
0
0
0
0
0
0
0
0
0
0
0
0
0
0
0
0
0
0
0
0
0
0
0
0
0
0
0
0
0
0
0
0
0
0
0
0
0
0
0
0
0
0
0
0
0
0
0
0
8
77
98
18
161
204
18
161
204
18
161
204
18
161
204
18
161
204
18
161
204
51
174
211
91
190
220
83
186
218
77
184
217
70
182
216
67
180
215
59
177
213
51
174
211
51
174
211
43
171
210
38
169
209
34
167
208
27
165
206
18
161
204
8
77
98
0
0
0
0
0
0
0
0
0
0
0
0
0
0
0
0
0
0
0
0
0
0
0
0
0
0
0
0
0
0
0
0
0
0
0
0
0
0
0
0
0
0
0
0
0
0
0
0
0
0
0
0
0
0
0
0
0
0
0
0
0
0
0
0
0
0
0
0
0
0
0
0
0
0
0
0
0
0
0
0
0
0
0
0
0
0
0
0
0
0
0
0
0
0
0
0
0
0
0
0
0
0
0
0
0
0
0
0
0
0
0
0
0
0
0
0
0
0
0
0
0
0
0
0
0
0
0
0
0
0
0
0
0
0
0
0
0
0
0
0
0
0
0
0
0
0
0
0
0
0
0
0
0
0
0
0
0
0
0
0
0
0
0
0
0
0
0
0
0
0
0
1
7
9
14
146
186
18
161
204
18
161
204
18
161
204
18
161
204
18
161
204
18
161
204
67
180
215
91
190
220
83
186
218
77
184
217
73
183
216
67
180
215
59
177
213
55
176
212
51
174
211
43
171
210
38
169
209
34
167
208
27
165
206
27
165
206
19
147
187
1
7
9
0
0
0
0
0
0
0
0
0
0
0
0
0
0
0
0
0
0
0
0
0
0
0
0
0
0
0
0
0
0
0
0
0
0
0
0
0
0
0
0
0
0
0
0
0
0
0
0
0
0
0
0
0
0
0
0
0
0
0
0
0
0
0
0
0
0
0
0
0
0
0
0
0
0
0
0
0
0
0
0
0
0
0
0
0
0
0
0
0
0
0
0
0
0
0
0
0
0
0
0
0
0
0
0
0
0
0
0
0
0
0
0
0
0
0
0
0
0
0
0
0
0
0
0
0
0
0
0
0
0
0
0
0
0
0
0
0
0
0
0
0
0
0
0
0
0
0
0
0
0
0
0
0
0
0
0
0
0
0
0
0
0
0
0
0
0
0
0
7
74
94
18
161
204
18
161
204
18
161
204
18
161
204
18
161
204
18
161
204
18
161
204
83
186
218
91
190
220
91
190
220
83
186
218
77
184
217
70
182
216
67
180
215
59
177
213
51
174
211
51
174
211
43
171
210
38
169
209
33
165
206
27
165
206
18
161
204
7
74
94
0
0
0
0
0
0
0
0
0
0
0
0
0
0
0
0
0
0
0
0
0
0
0
0
0
0
0
0
0
0
0
0
0
0
0
0
0
0
0
0
0
0
0
0
0
0
0
0
0
0
0
0
0
0
0
0
0
0
0
0
0
0
0
0
0
0
0
0
0
0
0
0
0
0
0
0
0
0
0
0
0
0
0
0
0
0
0
0
0
0
0
0
0
0
0
0
0
0
0
0
0
0
0
0
0
0
0
0
0
0
0
0
0
0
0
0
0
0
0
0
0
0
0
0
0
0
0
0
0
0
0
0
0
0
0
0
0
0
0
0
0
0
0
0
0
0
0
0
0
0
0
0
0
0
0
0
0
0
0
0
0
0
0
0
0
1
7
9
14
144
183
18
161
204
18
161
204
18
161
204
18
161
204
18
161
204
17
158
202
15
153
196
76
181
213
96
192
221
91
190
220
83
186
218
77
184
217
73
183
216
67
180
215
59
177
213
55
176
212
51
174
211
43
171
210
38
169
209
34
167
208
27
165
206
27
165
206
19
147
187
1
7
9
0
0
0
0
0
0
0
0
0
0
0
0
0
0
0
0
0
0
0
0
0
0
0
0
0
0
0
0
0
0
0
0
0
0
0
0
0
0
0
0
0
0
0
0
0
0
0
0
0
0
0
0
0
0
0
0
0
0
0
0
0
0
0
0
0
0
0
0
0
0
0
0
0
0
0
0
0
0
0
0
0
0
0
0
0
0
0
0
0
0
0
0
0
0
0
0
0
0
0
0
0
0
0
0
0
0
0
0
0
0
0
0
0
0
0
0
0
0
0
0
0
0
0
0
0
0
0
0
0
0
0
0
0
0
0
0
0
0
0
0
0
0
0
0
0
0
0
0
0
0
0
0
0
0
0
0
0
0
0
0
0
0
7
70
89
18
161
204
18
161
204
18
161
204
18
161
204
17
158
202
15
151
193
14
146
186
14
144
183
19
147
187
67
180
215
91
190
220
91
190
220
83
186
218
77
184
217
70
182
216
67
180
215
59
177
213
51
174
211
51
174
211
43
171
210
38
169
209
33
165
206
27
165
206
18
161
204
7
70
89
0
0
0
0
0
0
0
0
0
0
0
0
0
0
0
0
0
0
0
0
0
0
0
0
0
0
0
0
0
0
0
0
0
0
0
0
0
0
0
0
0
0
0
0
0
0
0
0
0
0
0
0
0
0
0
0
0
0
0
0
0
0
0
0
0
0
0
0
0
0
0
0
0
0
0
0
0
0
0
0
0
0
0
0
0
0
0
0
0
0
0
0
0
0
0
0
0
0
0
0
0
0
0
0
0
0
0
0
0
0
0
0
0
0
0
0
0
0
0
0
0
0
0
0
0
0
0
0
0
0
0
0
0
0
0
0
0
0
0
0
0
0
0
0
0
0
0
0
0
0
0
0
0
0
0
0
0
0
0
1
7
9
14
141
179
18
161
204
17
158
202
15
153
196
14
146
186
14
144
183
14
144
183
14
144
183
14
141
179
14
141
179
14
141
179
58
172
206
91
190
220
83
186
218
77
184
217
73
183
216
67
180
215
59
177
213
55
176
212
51
174
211
43
171
210
38
169
209
34
167
208
27
165
206
27
165
206
19
147
187
1
7
9
0
0
0
0
0
0
0
0
0
0
0
0
0
0
0
0
0
0
0
0
0
0
0
0
0
0
0
0
0
0
0
0
0
0
0
0
0
0
0
0
0
0
0
0
0
0
0
0
0
0
0
0
0
0
0
0
0
0
0
0
0
0
0
0
0
0
0
0
0
0
0
0
0
0
0
0
0
0
0
0
0
0
0
0
0
0
0
0
0
0
0
0
0
0
0
0
0
0
0
0
0
0
0
0
0
0
0
0
0
0
0
0
0
0
0
0
0
0
0
0
0
0
0
0
0
0
0
0
0
0
0
0
0
0
0
0
0
0
0
0
0
0
0
0
0
0
0
0
0
0
0
0
0
0
0
0
7
66
84
17
155
197
14
146
186
14
144
183
14
144
183
14
144
183
14
144
183
14
144
183
14
141
179
14
141
179
14
141
179
14
141
179
14
141
179
46
161
197
83
186
218
83
186
218
77
184
217
70
182
216
67
180
215
59
177
213
51
174
211
51
174
211
43
171
210
38
169
209
33
165
206
27
165
206
18
161
204
7
66
84
0
0
0
0
0
0
0
0
0
0
0
0
0
0
0
0
0
0
0
0
0
0
0
0
0
0
0
0
0
0
0
0
0
0
0
0
0
0
0
0
0
0
0
0
0
0
0
0
0
0
0
0
0
0
0
0
0
0
0
0
0
0
0
0
0
0
0
0
0
0
0
0
0
0
0
0
0
0
0
0
0
0
0
0
0
0
0
0
0
0
0
0
0
0
0
0
0
0
0
0
0
0
0
0
0
0
0
0
0
0
0
0
0
0
0
0
0
0
0
0
0
0
0
0
0
0
0
0
0
0
0
0
0
0
0
0
0
0
0
0
0
0
0
0
0
0
0
0
0
0
0
0
0
0
0
0
5
49
62
13
130
165
14
144
183
14
144
183
14
144
183
14
144
183
14
144
183
14
141
179
14
141
179
14
141
179
14
141
179
14
141
179
14
141
179
14
141
179
37
157
194
83
186
218
77
184
217
73
183
216
67
180
215
59
177
213
55
176
212
51
174
211
43
171
210
38
169
209
34
167
208
27
165
206
27
165
206
18
141
179
0
0
0
0
0
0
0
0
0
0
0
0
0
0
0
0
0
0
0
0
0
0
0
0
0
0
0
0
0
0
0
0
0
0
0
0
0
0
0
0
0
0
0
0
0
0
0
0
0
0
0
0
0
0
0
0
0
0
0
0
0
0
0
0
0
0
0
0
0
0
0
0
0
0
0
0
0
0
0
0
0
0
0
0
0
0
0
0
0
0
0
0
0
0
0
0
0
0
0
0
0
0
0
0
0
0
0
0
0
0
0
0
0
0
0
0
0
0
0
0
0
0
0
0
0
0
0
0
0
0
0
0
0
0
0
0
0
0
0
0
0
0
0
0
0
0
0
0
0
0
0
0
0
0
0
0
0
0
0
1
7
9
7
66
84
14
137
174
14
144
183
14
144
183
14
141
179
14
141
179
14
141
179
14
141
179
14
141
179
14
141
179
14
141
179
14
141
179
14
141
179
32
151
188
77
184
217
77
184
217
70
182
216
67
180
215
59
177
213
51
174
211
51
174
211
43
171
210
38
169
209
33
165
206
27
165
206
18
161
204
6
59
76
0
0
0
0
0
0
0
0
0
0
0
0
0
0
0
0
0
0
0
0
0
0
0
0
0
0
0
0
0
0
0
0
0
0
0
0
0
0
0
0
0
0
0
0
0
0
0
0
0
0
0
0
0
0
0
0
0
0
0
0
0
0
0
0
0
0
0
0
0
0
0
0
0
0
0
0
0
0
0
0
0
0
0
0
0
0
0
0
0
0
0
0
0
0
0
0
0
0
0
0
0
0
0
0
0
0
0
0
0
0
0
0
0
0
0
0
0
0
0
0
0
0
0
0
0
0
0
0
0
0
0
0
0
0
0
0
0
0
0
0
0
0
0
0
0
0
0
0
0
0
0
0
0
0
0
0
0
0
0
0
0
0
1
11
13
9
84
107
14
141
179
14
141
179
14
141
179
14
141
179
14
141
179
14
141
179
14
141
179
14
141
179
14
141
179
14
137
174
14
137
174
27
146
182
70
182
216
73
183
216
67
180
215
59
177
213
55
176
212
51
174
211
43
171
210
38
169
209
34
167
208
27
165
206
27
165
206
18
141
179
0
0
0
0
0
0
0
0
0
0
0
0
0
0
0
0
0
0
0
0
0
0
0
0
0
0
0
0
0
0
0
0
0
0
0
0
0
0
0
0
0
0
0
0
0
0
0
0
0
0
0
0
0
0
0
0
0
0
0
0
0
0
0
0
0
0
0
0
0
0
0
0
0
0
0
0
0
0
0
0
0
0
0
0
0
0
0
0
0
0
0
0
0
0
0
0
0
0
0
0
0
0
0
0
0
0
0
0
0
0
0
0
0
0
0
0
0
0
0
0
0
0
0
0
0
0
0
0
0
0
0
0
0
0
0
0
0
0
0
0
0
0
0
0
0
0
0
0
0
0
0
0
0
0
0
0
0
0
0
0
0
0
0
0
0
0
0
0
2
24
31
10
98
124
14
141
179
14
141
179
14
141
179
14
141
179
14
141
179
14
141
179
14
137
174
14
137
174
14
137
174
14
137
174
25
142
178
67
180
215
70
182
216
67
180
215
59
177
213
51
174
211
51
174
211
43
171
210
38
169
209
33
165
206
27
165
206
18
161
204
6
59
76
0
0
0
0
0
0
0
0
0
0
0
0
0
0
0
0
0
0
0
0
0
0
0
0
0
0
0
0
0
0
0
0
0
0
0
0
0
0
0
0
0
0
0
0
0
0
0
0
0
0
0
0
0
0
0
0
0
0
0
0
0
0
0
0
0
0
0
0
0
0
0
0
0
0
0
0
0
0
0
0
0
0
0
0
0
0
0
0
0
0
0
0
0
0
0
0
0
0
0
0
0
0
0
0
0
0
0
0
0
0
0
0
0
0
0
0
0
0
0
0
0
0
0
0
0
0
0
0
0
0
0
0
0
0
0
0
0
0
0
0
0
0
0
0
0
0
0
0
0
0
0
0
0
0
0
0
0
0
0
0
0
0
0
0
0
0
0
0
0
0
0
4
41
52
12
117
148
14
141
179
14
141
179
14
141
179
14
137
174
14
137
174
14
137
174
14
137
174
13
133
170
13
133
170
19
137
173
58
172
206
67
180
215
59
177
213
55
176
212
51
174
211
43
171
210
38
169
209
34
167
208
27
165
206
27
165
206
14
137
174
0
0
0
0
0
0
0
0
0
0
0
0
0
0
0
0
0
0
0
0
0
0
0
0
0
0
0
0
0
0
0
0
0
0
0
0
0
0
0
0
0
0
0
0
0
0
0
0
0
0
0
0
0
0
0
0
0
0
0
0
0
0
0
0
0
0
0
0
0
0
0
0
0
0
0
0
0
0
0
0
0
0
0
0
0
0
0
0
0
0
0
0
0
0
0
0
0
0
0
0
0
0
0
0
0
0
0
0
0
0
0
0
0
0
0
0
0
0
0
0
0
0
0
0
0
0
0
0
0
0
0
0
0
0
0
0
0
0
0
0
0
0
0
0
0
0
0
0
0
0
0
0
0
0
0
0
0
0
0
0
0
0
0
0
0
0
0
0
0
0
0
0
0
0
0
0
0
6
56
71
13
126
161
14
137
174
14
137
174
14
137
174
14
137
174
13
133
170
13
133
170
13
133
170
13
133
170
18
134
170
53
167
201
67
180
215
59
177
213
51
174
211
51
174
211
43
171
210
38
169
209
33
165
206
27
165
206
18
161
204
5
52
67
0
0
0
0
0
0
0
0
0
0
0
0
0
0
0
0
0
0
0
0
0
0
0
0
0
0
0
0
0
0
0
0
0
0
0
0
0
0
0
0
0
0
0
0
0
0
0
0
0
0
0
0
0
0
0
0
0
0
0
0
0
0
0
0
0
0
0
0
0
0
0
0
0
0
0
0
0
0
0
0
0
0
0
0
0
0
0
0
0
0
0
0
0
0
0
0
0
0
0
0
0
0
0
0
0
0
0
0
0
0
0
0
0
0
0
0
0
0
0
0
0
0
0
0
0
0
0
0
0
0
0
0
0
0
0
0
0
0
0
0
0
0
0
0
0
0
0
0
0
0
0
0
0
0
0
0
0
0
0
0
0
0
0
0
0
0
0
0
0
0
0
0
0
0
0
0
0
1
7
9
7
70
89
13
130
165
14
137
174
13
133
170
13
133
170
13
133
170
13
133
170
13
133
170
13
133
170
13
133
170
46
161
197
59
177
213
55
176
212
51
174
211
43
171
210
38
169
209
34
167
208
27
165
206
27
165
206
13
133
170
0
0
0
0
0
0
0
0
0
0
0
0
0
0
0
0
0
0
0
0
0
0
0
0
0
0
0
0
0
0
0
0
0
0
0
0
0
0
0
0
0
0
0
0
0
0
0
0
0
0
0
0
0
0
0
0
0
0
0
0
0
0
0
0
0
0
0
0
0
0
0
0
0
0
0
0
0
0
0
0
0
0
0
0
0
0
0
0
0
0
0
0
0
0
0
0
0
0
0
0
0
0
0
0
0
0
0
0
0
0
0
0
0
0
0
0
0
0
0
0
0
0
0
0
0
0
0
0
0
0
0
0
0
0
0
0
0
0
0
0
0
0
0
0
0
0
0
0
0
0
0
0
0
0
0
0
0
0
0
0
0
0
0
0
0
0
0
0
0
0
0
0
0
0
0
0
0
0
0
0
0
0
0
2
18
22
9
88
111
13
133
170
13
133
170
13
133
170
13
133
170
13
133
170
13
130
165
13
130
165
13
130
165
36
154
190
59
177
213
51
174
211
51
174
211
43
171
210
38
169
209
33
165
206
27
165
206
18
161
204
5
49
62
0
0
0
0
0
0
0
0
0
0
0
0
0
0
0
0
0
0
0
0
0
0
0
0
0
0
0
0
0
0
0
0
0
0
0
0
0
0
0
0
0
0
0
0
0
0
0
0
0
0
0
0
0
0
0
0
0
0
0
0
0
0
0
0
0
0
0
0
0
0
0
0
0
0
0
0
0
0
0
0
0
0
0
0
0
0
0
0
0
0
0
0
0
0
0
0
0
0
0
0
0
0
0
0
0
0
0
0
0
0
0
0
0
0
0
0
0
0
0
0
0
0
0
0
0
0
0
0
0
0
0
0
2
18
22
0
0
0
0
0
0
0
0
0
0
0
0
0
0
0
0
0
0
0
0
0
0
0
0
0
0
0
0
0
0
0
0
0
0
0
0
0
0
0
0
0
0
0
0
0
0
0
0
0
0
0
3
31
40
11
105
134
13
133
170
13
133
170
13
130
165
13
130
165
13
130
165
13
130
165
13
130
165
29
150
187
51
174
211
51
174
211
43
171
210
38
169
209
34
167
208
27
165
206
27
165
206
13
130
165
0
0
0
0
0
0
0
0
0
0
0
0
0
0
0
0
0
0
0
0
0
0
0
0
0
0
0
0
0
0
0
0
0
0
0
0
0
0
0
0
0
0
0
0
0
0
0
0
0
0
0
0
0
0
0
0
0
0
0
0
0
0
0
0
0
0
0
0
0
0
0
0
0
0
0
0
0
0
0
0
0
0
0
0
0
0
0
0
0
0
0
0
0
0
0
0
0
0
0
0
0
0
0
0
0
0
0
0
0
0
0
0
0
0
0
0
0
0
0
0
0
0
0
0
0
0
0
0
0
5
46
59
18
161
204
12
119
152
5
49
62
0
0
0
0
0
0
0
0
0
0
0
0
0
0
0
0
0
0
0
0
0
0
0
0
0
0
0
0
0
0
0
0
0
0
0
0
0
0
0
0
0
0
0
0
0
0
0
0
0
0
0
4
41
52
12
117
148
13
130
165
13
130
165
13
130
165
13
130
165
13
130
165
13
126
161
25
142
178
51
174
211
51
174
211
43
171
210
38
169
209
27
165
206
27
165
206
18
161
204
5
46
59
0
0
0
0
0
0
0
0
0
0
0
0
0
0
0
0
0
0
0
0
0
0
0
0
0
0
0
0
0
0
0
0
0
0
0
0
0
0
0
0
0
0
0
0
0
0
0
0
0
0
0
0
0
0
0
0
0
0
0
0
0
0
0
0
0
0
0
0
0
0
0
0
0
0
0
0
0
0
0
0
0
0
0
0
0
0
0
0
0
0
0
0
0
0
0
0
0
0
0
0
0
0
0
0
0
0
0
0
0
0
0
0
0
0
0
0
0
0
0
0
0
0
0
0
0
0
12
123
156
18
161
204
27
165
206
18
161
204
14
137
174
7
74
94
1
11
13
0
0
0
0
0
0
0
0
0
0
0
0
0
0
0
0
0
0
0
0
0
0
0
0
0
0
0
0
0
0
0
0
0
0
0
0
0
0
0
0
0
0
0
0
0
0
0
0
6
59
76
12
119
152
13
130
165
13
130
165
13
126
161
13
126
161
13
126
161
19
137
173
47
168
206
43
171
210
38
169
209
34
167
208
27
165
206
27
165
206
13
126
161
0
0
0
0
0
0
0
0
0
0
0
0
0
0
0
0
0
0
0
0
0
0
0
0
0
0
0
0
0
0
0
0
0
0
0
0
0
0
0
0
0
0
0
0
0
0
0
0
0
0
0
0
0
0
0
0
0
0
0
0
0
0
0
0
0
0
0
0
0
0
0
0
0
0
0
0
0
0
0
0
0
0
0
0
0
0
0
0
0
0
0
0
0
0
0
0
0
0
0
0
0
0
0
0
0
0
0
0
0
0
0
0
0
0
0
0
0
0
0
0
0
0
0
4
41
52
18
161
204
27
165
206
27
165
206
27
165
206
27
165
206
18
161
204
15
151
193
10
98
124
3
28
35
0
0
0
0
0
0
0
0
0
0
0
0
0
0
0
0
0
0
0
0
0
0
0
0
0
0
0
0
0
0
0
0
0
0
0
0
0
0
0
0
0
0
0
0
0
1
11
13
8
77
98
12
123
156
13
126
161
13
126
161
13
126
161
12
123
156
17
129
164
44
166
203
43
171
210
38
169
209
27
165
206
27
165
206
18
161
204
4
41
52
0
0
0
0
0
0
0
0
0
0
0
0
0
0
0
0
0
0
0
0
0
0
0
0
0
0
0
0
0
0
0
0
0
0
0
0
0
0
0
0
0
0
0
0
0
0
0
0
0
0
0
0
0
0
0
0
0
0
0
0
0
0
0
0
0
0
0
0
0
0
0
0
0
0
0
0
0
0
0
0
0
0
0
0
0
0
0
0
0
0
0
0
0
0
0
0
0
0
0
0
0
0
0
0
0
0
0
0
0
0
0
0
0
0
0
0
0
0
0
0
12
123
156
18
161
204
27
165
206
27
165
206
27
165
206
33
165
206
34
167
208
18
161
204
18
161
204
18
161
204
13
130
165
6
59
76
0
0
0
0
0
0
0
0
0
0
0
0
0
0
0
0
0
0
0
0
0
0
0
0
0
0
0
0
0
0
0
0
0
0
0
0
0
0
0
0
0
0
0
0
0
2
18
22
9
90
115
12
123
156
12
123
156
12
123
156
12
123
156
17
129
164
44
166
203
38
169
209
34
167
208
27
165
206
27
165
206
12
119
152
0
0
0
0
0
0
0
0
0
0
0
0
0
0
0
0
0
0
0
0
0
0
0
0
0
0
0
0
0
0
0
0
0
0
0
0
0
0
0
0
0
0
0
0
0
0
0
0
0
0
0
0
0
0
0
0
0
0
0
0
0
0
0
0
0
0
0
0
0
0
0
0
0
0
0
0
0
0
0
0
0
0
0
0
0
0
0
0
0
0
0
0
0
0
0
0
0
0
0
0
0
0
0
0
0
0
0
0
0
0
0
0
0
0
0
0
0
3
35
44
18
161
204
18
161
204
27
165
206
27
165
206
27
165
206
34
167
208
38
169
209
38
169
209
27
165
206
18
161
204
18
161
204
18
161
204
14
146
186
9
84
107
2
18
22
0
0
0
0
0
0
0
0
0
0
0
0
0
0
0
0
0
0
0
0
0
0
0
0
0
0
0
0
0
0
0
0
0
0
0
0
0
0
0
0
0
0
3
35
44
10
102
130
12
123
156
12
123
156
12
123
156
12
123
156
37
157
194
38
169
209
27
165
206
27
165
206
18
161
204
4
39
50
0
0
0
0
0
0
0
0
0
0
0
0
0
0
0
0
0
0
0
0
0
0
0
0
0
0
0
0
0
0
0
0
0
0
0
0
0
0
0
0
0
0
0
0
0
0
0
0
0
0
0
0
0
0
0
0
0
0
0
0
0
0
0
0
0
0
0
0
0
0
0
0
0
0
0
0
0
0
0
0
0
0
0
0
0
0
0
0
0
0
0
0
0
0
0
0
0
0
0
0
0
0
0
0
0
0
0
0
0
0
0
0
0
0
12
117
148
18
161
204
27
165
206
27
165
206
27
165
206
33
165
206
34
167
208
38
169
209
38
169
209
43
171
210
38
169
209
18
161
204
18
161
204
18
161
204
18
161
204
17
155
197
11
109
138
4
41
52
0
0
0
0
0
0
0
0
0
0
0
0
0
0
0
0
0
0
0
0
0
0
0
0
0
0
0
0
0
0
0
0
0
0
0
0
0
0
0
0
0
0
5
49
62
11
109
138
12
123
156
12
119
152
12
119
152
29
150
187
34
167
208
27
165
206
27
165
206
12
117
148
0
0
0
0
0
0
0
0
0
0
0
0
0
0
0
0
0
0
0
0
0
0
0
0
0
0
0
0
0
0
0
0
0
0
0
0
0
0
0
0
0
0
0
0
0
0
0
0
0
0
0
0
0
0
0
0
0
0
0
0
0
0
0
0
0
0
0
0
0
0
0
0
0
0
0
0
0
0
0
0
0
0
0
0
0
0
0
0
0
0
0
0
0
0
0
0
0
0
0
0
0
0
0
0
0
0
0
0
0
0
0
3
35
44
18
161
204
18
161
204
27
165
206
27
165
206
27
165
206
34
167
208
38
169
209
38
169
209
43
171
210
43
171
210
43
171
210
43
171
210
27
165
206
18
161
204
18
161
204
18
161
204
18
161
204
18
161
204
13
133
170
7
70
89
1
7
9
0
0
0
0
0
0
0
0
0
0
0
0
0
0
0
0
0
0
0
0
0
0
0
0
0
0
0
0
0
0
0
0
0
0
0
0
1
7
9
6
63
80
12
117
148
12
119
152
12
119
152
27
146
182
27
165
206
27
165
206
18
161
204
3
35
44
0
0
0
0
0
0
0
0
0
0
0
0
0
0
0
0
0
0
0
0
0
0
0
0
0
0
0
0
0
0
0
0
0
0
0
0
0
0
0
0
0
0
0
0
0
0
0
0
0
0
0
0
0
0
0
0
0
0
0
0
0
0
0
0
0
0
0
0
0
0
0
0
0
0
0
0
0
0
0
0
0
0
0
0
0
0
0
0
0
0
0
0
0
0
0
0
0
0
0
0
0
0
0
0
0
0
0
0
12
117
148
18
161
204
27
165
206
27
165
206
27
165
206
27
165
206
34
167
208
38
169
209
38
169
209
43
171
210
43
171
210
51
174
211
51
174
211
51
174
211
33
165
206
18
161
204
18
161
204
18
161
204
18
161
204
18
161
204
18
161
204
15
151
193
10
98
124
3
28
35
0
0
0
0
0
0
0
0
0
0
0
0
0
0
0
0
0
0
0
0
0
0
0
0
0
0
0
0
0
0
0
0
0
0
0
0
1
11
13
8
77
98
12
117
148
12
117
148
19
137
173
27
165
206
27
165
206
12
113
143
0
0
0
0
0
0
0
0
0
0
0
0
0
0
0
0
0
0
0
0
0
0
0
0
0
0
0
0
0
0
0
0
0
0
0
0
0
0
0
0
0
0
0
0
0
0
0
0
0
0
0
0
0
0
0
0
0
0
0
0
0
0
0
0
0
0
0
0
0
0
0
0
0
0
0
0
0
0
0
0
0
0
0
0
0
0
0
0
0
0
0
0
0
0
0
0
0
0
0
0
0
0
0
0
0
3
31
40
18
161
204
18
161
204
27
165
206
27
165
206
27
165
206
34
167
208
38
169
209
38
169
209
43
171
210
43
171
210
43
171
210
51
174
211
51
174
211
55
176
212
59
177
213
43
171
210
18
161
204
18
161
204
18
161
204
18
161
204
18
161
204
18
161
204
18
161
204
17
158
202
12
117
148
5
52
67
0
0
0
0
0
0
0
0
0
0
0
0
0
0
0
0
0
0
0
0
0
0
0
0
0
0
0
0
0
0
0
0
0
0
0
0
2
24
31
9
90
115
12
117
148
18
134
170
27
165
206
18
161
204
3
35
44
0
0
0
0
0
0
0
0
0
0
0
0
0
0
0
0
0
0
0
0
0
0
0
0
0
0
0
0
0
0
0
0
0
0
0
0
0
0
0
0
0
0
0
0
0
0
0
0
0
0
0
0
0
0
0
0
0
0
0
0
0
0
0
0
0
0
0
0
0
0
0
0
0
0
0
0
0
0
0
0
0
0
0
0
0
0
0
0
0
0
0
0
0
0
0
0
0
0
0
0
0
0
11
109
138
18
161
204
27
165
206
27
165
206
27
165
206
27
165
206
34
167
208
38
169
209
38
169
209
43
171
210
43
171
210
51
174
211
51
174
211
51
174
211
55
176
212
59
177
213
59
177
213
55
176
212
27
165
206
18
161
204
18
161
204
18
161
204
18
161
204
18
161
204
18
161
204
18
161
204
18
161
204
14
141
179
8
80
102
1
14
17
0
0
0
0
0
0
0
0
0
0
0
0
0
0
0
0
0
0
0
0
0
0
0
0
0
0
0
0
0
0
0
0
0
4
39
50
10
102
130
13
126
161
17
158
202
11
109
138
0
0
0
0
0
0
0
0
0
0
0
0
0
0
0
0
0
0
0
0
0
0
0
0
0
0
0
0
0
0
0
0
0
0
0
0
0
0
0
0
0
0
0
0
0
0
0
0
0
0
0
0
0
0
0
0
0
0
0
0
0
0
0
0
0
0
0
0
0
0
0
0
0
0
0
0
0
0
0
0
0
0
0
0
0
0
0
0
0
0
0
0
0
0
0
0
0
0
0
3
28
35
18
161
204
18
161
204
27
165
206
27
165
206
27
165
206
33
165
206
34
167
208
38
169
209
38
169
209
43
171
210
43
171
210
51
174
211
51
174
211
51
174
211
55
176
212
59
177
213
59
177
213
67
180
215
67
180
215
34
167
208
18
161
204
18
161
204
18
161
204
18
161
204
18
161
204
18
161
204
18
161
204
18
161
204
18
161
204
17
155
197
11
109
138
3
35
44
0
0
0
0
0
0
0
0
0
0
0
0
0
0
0
0
0
0
0
0
0
0
0
0
0
0
0
0
0
0
0
0
0
5
52
67
12
117
148
17
155
197
3
28
35
0
0
0
0
0
0
0
0
0
0
0
0
0
0
0
0
0
0
0
0
0
0
0
0
0
0
0
0
0
0
0
0
0
0
0
0
0
0
0
0
0
0
0
0
0
0
0
0
0
0
0
0
0
0
0
0
0
0
0
0
0
0
0
0
0
0
0
0
0
0
0
0
0
0
0
0
0
0
0
0
0
0
0
0
0
0
0
0
0
0
0
0
0
0
0
0
11
105
134
18
161
204
18
161
204
27
165
206
27
165
206
27
165
206
34
167
208
38
169
209
38
169
209
43
171
210
43
171
210
43
171
210
51
174
211
51
174
211
55
176
212
59
177
213
59
177
213
67
180
215
67
180
215
70
182
216
73
183
216
51
174
211
18
161
204
18
161
204
18
161
204
18
161
204
18
161
204
18
161
204
18
161
204
18
161
204
18
161
204
18
161
204
18
161
204
13
130
165
7
66
84
1
7
9
0
0
0
0
0
0
0
0
0
0
0
0
0
0
0
0
0
0
0
0
0
0
0
0
0
0
0
1
7
9
8
72
92
9
94
120
0
0
0
0
0
0
0
0
0
0
0
0
0
0
0
0
0
0
0
0
0
0
0
0
0
0
0
0
0
0
0
0
0
0
0
0
0
0
0
0
0
0
0
0
0
0
0
0
0
0
0
0
0
0
0
0
0
0
0
0
0
0
0
0
0
0
0
0
0
0
0
0
0
0
0
0
0
0
0
0
0
0
0
0
0
0
0
0
0
0
0
0
0
2
24
31
17
158
202
18
161
204
27
165
206
27
165
206
27
165
206
33
165
206
34
167
208
38
169
209
38
169
209
43
171
210
43
171
210
51
174
211
51
174
211
51
174
211
55
176
212
59
177
213
59
177
213
67
180
215
67
180
215
70
182
216
73
183
216
77
184
217
67
180
215
27
165
206
18
161
204
18
161
204
18
161
204
18
161
204
18
161
204
18
161
204
18
161
204
18
161
204
18
161
204
18
161
204
18
161
204
14
146
186
9
84
107
2
21
27
0
0
0
0
0
0
0
0
0
0
0
0
0
0
0
0
0
0
0
0
0
0
0
0
0
0
0
2
18
22
0
0
0
0
0
0
0
0
0
0
0
0
0
0
0
0
0
0
0
0
0
0
0
0
0
0
0
0
0
0
0
0
0
0
0
0
0
0
0
0
0
0
0
0
0
0
0
0
0
0
0
0
0
0
0
0
0
0
0
0
0
0
0
0
0
0
0
0
0
0
0
0
0
0
0
0
0
0
0
0
0
0
0
0
0
0
0
0
0
0
0
0
0
10
102
130
18
161
204
18
161
204
27
165
206
27
165
206
27
165
206
34
167
208
38
169
209
38
169
209
43
171
210
43
171
210
43
171
210
51
174
211
51
174
211
55
176
212
59
177
213
59
177
213
67
180
215
67
180
215
70
182
216
70
182
216
73
183
216
77
184
217
83
186
218
83
186
218
38
169
209
18
161
204
18
161
204
18
161
204
18
161
204
18
161
204
18
161
204
18
161
204
18
161
204
18
161
204
18
161
204
18
161
204
18
161
204
17
158
202
12
117
148
5
49
62
0
0
0
0
0
0
0
0
0
0
0
0
0
0
0
0
0
0
0
0
0
0
0
0
0
0
0
0
0
0
0
0
0
0
0
0
0
0
0
0
0
0
0
0
0
0
0
0
0
0
0
0
0
0
0
0
0
0
0
0
0
0
0
0
0
0
0
0
0
0
0
0
0
0
0
0
0
0
0
0
0
0
0
0
0
0
0
0
0
0
0
0
0
0
0
0
0
0
0
0
0
0
0
0
0
0
0
0
0
0
0
0
0
0
2
21
27
17
158
202
18
161
204
27
165
206
27
165
206
27
165
206
27
165
206
34
167
208
38
169
209
38
169
209
43
171
210
43
171
210
51
174
211
51
174
211
51
174
211
55
176
212
59
177
213
59
177
213
67
180
215
67
180
215
70
182
216
73
183
216
77
184
217
83
186
218
83
186
218
83
186
218
91
190
220
59
177
213
18
161
204
18
161
204
18
161
204
18
161
204
18
161
204
18
161
204
18
161
204
18
161
204
18
161
204
18
161
204
18
161
204
18
161
204
18
161
204
18
161
204
14
137
174
7
74
94
1
11
13
0
0
0
0
0
0
0
0
0
0
0
0
0
0
0
0
0
0
0
0
0
0
0
0
0
0
0
0
0
0
0
0
0
0
0
0
0
0
0
0
0
0
0
0
0
0
0
0
0
0
0
0
0
0
0
0
0
0
0
0
0
0
0
0
0
0
0
0
0
0
0
0
0
0
0
0
0
0
0
0
0
0
0
0
0
0
0
0
0
0
0
0
0
0
0
0
0
0
0
0
0
0
0
0
0
10
98
124
18
161
204
18
161
204
27
165
206
27
165
206
27
165
206
33
165
206
34
167
208
38
169
209
38
169
209
43
171
210
43
171
210
51
174
211
51
174
211
55
176
212
59
177
213
59
177
213
67
180
215
67
180
215
70
182
216
70
182
216
73
183
216
77
184
217
83
186
218
83
186
218
83
186
218
91
190
220
91
190
220
77
184
217
27
165
206
18
161
204
18
161
204
18
161
204
18
161
204
18
161
204
18
161
204
18
161
204
18
161
204
18
161
204
18
161
204
18
161
204
18
161
204
18
161
204
18
161
204
15
153
196
10
102
130
3
31
40
0
0
0
0
0
0
0
0
0
0
0
0
0
0
0
0
0
0
0
0
0
0
0
0
0
0
0
0
0
0
0
0
0
0
0
0
0
0
0
0
0
0
0
0
0
0
0
0
0
0
0
0
0
0
0
0
0
0
0
0
0
0
0
0
0
0
0
0
0
0
0
0
0
0
0
0
0
0
0
0
0
0
0
0
0
0
0
0
0
0
0
0
0
0
0
0
2
18
22
17
155
197
18
161
204
27
165
206
27
165
206
27
165
206
27
165
206
34
167
208
38
169
209
38
169
209
43
171
210
43
171
210
51
174
211
51
174
211
51
174
211
55
176
212
59
177
213
59
177
213
67
180
215
67
180
215
70
182
216
73
183
216
77
184
217
77
184
217
83
186
218
83
186
218
91
190
220
91
190
220
91
190
220
96
192
221
91
190
220
38
169
209
18
161
204
18
161
204
18
161
204
18
161
204
18
161
204
18
161
204
18
161
204
18
161
204
18
161
204
18
161
204
18
161
204
18
161
204
18
161
204
18
161
204
18
161
204
18
161
204
13
130
165
6
59
76
0
0
0
0
0
0
0
0
0
0
0
0
0
0
0
0
0
0
0
0
0
0
0
0
0
0
0
0
0
0
0
0
0
0
0
0
0
0
0
0
0
0
0
0
0
0
0
0
0
0
0
0
0
0
0
0
0
0
0
0
0
0
0
0
0
0
0
0
0
0
0
0
0
0
0
0
0
0
0
0
0
0
0
0
0
0
0
0
0
0
9
94
120
18
161
204
18
161
204
27
165
206
27
165
206
27
165
206
33
165
206
34
167
208
38
169
209
38
169
209
43
171
210
43
171
210
51
174
211
51
174
211
51
174
211
55
176
212
59
177
213
59
177
213
67
180
215
67
180
215
70
182
216
73
183
216
77
184
217
83
186
218
83
186
218
83
186
218
91
190
220
91
190
220
91
190
220
96
192
221
83
186
218
37
157
194
14
144
183
14
144
183
14
144
183
14
146
186
14
146
186
14
146
186
14
146
186
14
146
186
14
146
186
14
146
186
14
146
186
14
146
186
14
146
186
14
146
186
14
146
186
14
146
186
14
141
179
9
90
115
2
21
27
0
0
0
0
0
0
0
0
0
0
0
0
0
0
0
0
0
0
0
0
0
0
0
0
0
0
0
0
0
0
0
0
0
0
0
0
0
0
0
0
0
0
0
0
0
0
0
0
0
0
0
0
0
0
0
0
0
0
0
0
0
0
0
0
0
0
0
0
0
0
0
0
0
0
0
0
0
0
0
0
0
0
0
0
1
14
17
15
153
196
18
161
204
18
161
204
27
165
206
27
165
206
27
165
206
34
167
208
38
169
209
38
169
209
43
171
210
43
171
210
43
171
210
51
174
211
51
174
211
55
176
212
59
177
213
59
177
213
67
180
215
67
180
215
70
182
216
73
183
216
77
184
217
77
184
217
83
186
218
83
186
218
91
190
220
91
190
220
91
190
220
91
190
220
53
167
201
14
141
179
14
141
179
14
144
183
14
144
183
14
144
183
14
144
183
14
144
183
14
144
183
14
144
183
14
144
183
14
144
183
14
144
183
14
144
183
14
144
183
14
144
183
14
144
183
12
123
156
8
72
92
1
11
13
0
0
0
0
0
0
0
0
0
0
0
0
0
0
0
0
0
0
0
0
0
0
0
0
0
0
0
0
0
0
0
0
0
0
0
0
0
0
0
0
0
0
0
0
0
0
0
0
0
0
0
0
0
0
0
0
0
0
0
0
0
0
0
0
0
0
0
0
0
0
0
0
0
0
0
0
0
0
0
0
0
0
0
0
0
0
0
0
0
0
9
90
115
18
161
204
18
161
204
27
165
206
27
165
206
27
165
206
27
165
206
34
167
208
38
169
209
38
169
209
43
171
210
43
171
210
51
174
211
51
174
211
51
174
211
55
176
212
59
177
213
59
177
213
67
180
215
67
180
215
70
182
216
73
183
216
77
184
217
83
186
218
83
186
218
83
186
218
91
190
220
91
190
220
65
174
207
19
147
187
14
141
179
14
141
179
14
141
179
14
141
179
14
144
183
14
144
183
14
144
183
14
144
183
14
144
183
14
144
183
14
144
183
14
144
183
14
144
183
14
144
183
14
141
179
10
98
124
4
41
52
0
0
0
0
0
0
0
0
0
0
0
0
0
0
0
0
0
0
0
0
0
0
0
0
0
0
0
0
0
0
0
0
0
0
0
0
0
0
0
0
0
0
0
0
0
0
0
0
0
0
0
0
0
0
0
0
0
0
0
0
0
0
0
0
0
0
0
0
0
0
0
0
0
0
0
0
0
0
0
0
0
0
0
0
0
0
0
0
0
0
0
0
0
0
0
0
1
14
17
15
153
196
18
161
204
18
161
204
27
165
206
27
165
206
27
165
206
34
167
208
38
169
209
38
169
209
43
171
210
43
171
210
43
171
210
51
174
211
51
174
211
55
176
212
59
177
213
59
177
213
67
180
215
67
180
215
70
182
216
70
182
216
73
183
216
77
184
217
83
186
218
83
186
218
83
186
218
76
181
213
29
150
187
14
141
179
14
141
179
14
141
179
14
141
179
14
141
179
14
141
179
14
144
183
14
144
183
14
144
183
14
144
183
14
144
183
14
144
183
14
144
183
14
144
183
13
130
165
8
72
92
1
14
17
0
0
0
0
0
0
0
0
0
0
0
0
0
0
0
0
0
0
0
0
0
0
0
0
0
0
0
0
0
0
0
0
0
0
0
0
0
0
0
0
0
0
0
0
0
0
0
0
0
0
0
0
0
0
0
0
0
0
0
0
0
0
0
0
0
0
0
0
0
0
0
0
0
0
0
0
0
0
0
0
0
0
0
0
0
0
0
0
0
0
0
0
0
0
0
0
0
0
0
0
0
0
9
84
107
18
161
204
18
161
204
27
165
206
27
165
206
27
165
206
27
165
206
34
167
208
38
169
209
38
169
209
43
171
210
43
171
210
51
174
211
51
174
211
51
174
211
55
176
212
59
177
213
59
177
213
67
180
215
67
180
215
70
182
216
73
183
216
77
184
217
77
184
217
83
186
218
83
186
218
46
161
197
14
141
179
14
141
179
14
141
179
14
141
179
14
141
179
14
141
179
14
141
179
14
141
179
14
141
179
14
144
183
14
144
183
14
144
183
14
144
183
14
141
179
11
109
138
5
52
67
0
0
0
0
0
0
0
0
0
0
0
0
0
0
0
0
0
0
0
0
0
0
0
0
0
0
0
0
0
0
0
0
0
0
0
0
2
18
22
10
102
130
9
84
107
0
0
0
0
0
0
0
0
0
0
0
0
0
0
0
0
0
0
0
0
0
0
0
0
0
0
0
0
0
0
0
0
0
0
0
0
0
0
0
0
0
0
0
0
0
0
0
0
0
0
0
0
0
0
0
0
0
0
0
0
0
0
0
1
11
13
15
151
193
18
161
204
18
161
204
27
165
206
27
165
206
27
165
206
33
165
206
34
167
208
38
169
209
38
169
209
43
171
210
43
171
210
51
174
211
51
174
211
55
176
212
59
177
213
59
177
213
67
180
215
67
180
215
70
182
216
70
182
216
73
183
216
77
184
217
83
186
218
53
167
201
18
141
179
14
141
179
14
141
179
14
141
179
14
141
179
14
141
179
14
141
179
14
141
179
14
141
179
14
141
179
14
141
179
14
141
179
14
144
183
14
137
174
9
90
115
3
28
35
0
0
0
0
0
0
0
0
0
0
0
0
0
0
0
0
0
0
0
0
0
0
0
0
0
0
0
0
0
0
0
0
0
0
0
0
1
7
9
8
80
102
17
155
197
27
165
206
17
155
197
1
14
17
0
0
0
0
0
0
0
0
0
0
0
0
0
0
0
0
0
0
0
0
0
0
0
0
0
0
0
0
0
0
0
0
0
0
0
0
0
0
0
0
0
0
0
0
0
0
0
0
0
0
0
0
0
0
0
0
0
0
0
0
8
80
102
18
161
204
18
161
204
27
165
206
27
165
206
27
165
206
27
165
206
34
167
208
38
169
209
38
169
209
43
171
210
43
171
210
51
174
211
51
174
211
51
174
211
55
176
212
59
177
213
59
177
213
67
180
215
67
180
215
70
182
216
73
183
216
77
184
217
60
174
208
27
146
182
14
137
174
14
137
174
14
137
174
14
141
179
14
141
179
14
141
179
14
141
179
14
141
179
14
141
179
14
141
179
14
141
179
14
141
179
12
117
148
6
59
76
1
7
9
0
0
0
0
0
0
0
0
0
0
0
0
0
0
0
0
0
0
0
0
0
0
0
0
0
0
0
0
0
0
0
0
0
0
0
0
0
0
0
5
52
67
14
141
179
18
161
204
27
165
206
27
165
206
27
165
206
8
80
102
0
0
0
0
0
0
0
0
0
0
0
0
0
0
0
0
0
0
0
0
0
0
0
0
0
0
0
0
0
0
0
0
0
0
0
0
0
0
0
0
0
0
0
0
0
0
0
0
0
0
0
0
0
0
0
0
0
1
11
13
14
146
186
18
161
204
18
161
204
27
165
206
27
165
206
27
165
206
33
165
206
34
167
208
38
169
209
38
169
209
43
171
210
43
171
210
51
174
211
51
174
211
51
174
211
55
176
212
59
177
213
59
177
213
67
180
215
67
180
215
70
182
216
67
180
215
36
154
190
13
133
170
14
137
174
14
137
174
14
137
174
14
137
174
14
141
179
14
141
179
14
141
179
14
141
179
14
141
179
14
141
179
14
137
174
9
94
120
3
31
40
0
0
0
0
0
0
0
0
0
0
0
0
0
0
0
0
0
0
0
0
0
0
0
0
0
0
0
0
0
0
0
0
0
0
0
0
0
0
0
0
0
0
3
35
44
12
123
156
18
161
204
18
161
204
27
165
206
43
171
210
34
167
208
27
165
206
17
155
197
1
11
13
0
0
0
0
0
0
0
0
0
0
0
0
0
0
0
0
0
0
0
0
0
0
0
0
0
0
0
0
0
0
0
0
0
0
0
0
0
0
0
0
0
0
0
0
0
0
0
0
0
0
0
0
0
0
8
77
98
18
161
204
18
161
204
18
161
204
27
165
206
27
165
206
27
165
206
34
167
208
38
169
209
38
169
209
43
171
210
43
171
210
43
171
210
51
174
211
51
174
211
55
176
212
59
177
213
59
177
213
67
180
215
67
180
215
67
180
215
46
161
197
19
137
173
13
133
170
13
133
170
14
137
174
14
137
174
14
137
174
14
137
174
14
137
174
14
141
179
14
141
179
14
141
179
12
123
156
7
70
89
1
11
13
0
0
0
0
0
0
0
0
0
0
0
0
0
0
0
0
0
0
0
0
0
0
0
0
0
0
0
0
0
0
0
0
0
0
0
0
0
0
0
0
0
0
2
18
22
10
102
130
17
158
202
18
161
204
18
161
204
18
161
204
51
174
211
43
171
210
38
169
209
27
165
206
27
165
206
8
77
98
0
0
0
0
0
0
0
0
0
0
0
0
0
0
0
0
0
0
0
0
0
0
0
0
0
0
0
0
0
0
0
0
0
0
0
0
0
0
0
0
0
0
0
0
0
0
0
0
0
0
0
1
7
9
14
146
186
18
161
204
18
161
204
27
165
206
27
165
206
27
165
206
27
165
206
34
167
208
38
169
209
38
169
209
43
171
210
43
171
210
51
174
211
51
174
211
51
174
211
55
176
212
59
177
213
59
177
213
67
180
215
53
167
201
25
142
178
13
133
170
13
133
170
13
133
170
13
133
170
13
133
170
14
137
174
14
137
174
14
137
174
14
137
174
14
137
174
10
102
130
4
41
52
0
0
0
0
0
0
0
0
0
0
0
0
0
0
0
0
0
0
0
0
0
0
0
0
0
0
0
0
0
0
0
0
0
0
0
0
0
0
0
0
0
0
0
0
0
1
7
9
7
74
94
15
151
193
18
161
204
18
161
204
18
161
204
18
161
204
51
174
211
55
176
212
51
174
211
43
171
210
34
167
208
27
165
206
19
147
187
1
7
9
0
0
0
0
0
0
0
0
0
0
0
0
0
0
0
0
0
0
0
0
0
0
0
0
0
0
0
0
0
0
0
0
0
0
0
0
0
0
0
0
0
0
0
0
0
0
0
0
7
74
94
18
161
204
18
161
204
18
161
204
27
165
206
27
165
206
27
165
206
34
167
208
38
169
209
38
169
209
43
171
210
43
171
210
43
171
210
51
174
211
51
174
211
55
176
212
59
177
213
59
177
213
58
172
206
27
146
182
13
130
165
13
133
170
13
133
170
13
133
170
13
133
170
13
133
170
13
133
170
13
133
170
14
137
174
13
126
161
8
77
98
2
18
22
0
0
0
0
0
0
0
0
0
0
0
0
0
0
0
0
0
0
0
0
0
0
0
0
0
0
0
0
0
0
0
0
0
0
0
0
0
0
0
0
0
0
0
0
0
0
0
0
5
52
67
14
141
179
18
161
204
18
161
204
18
161
204
18
161
204
18
161
204
38
169
209
67
180
215
59
177
213
51
174
211
43
171
210
38
169
209
27
165
206
27
165
206
8
72
92
0
0
0
0
0
0
0
0
0
0
0
0
0
0
0
0
0
0
0
0
0
0
0
0
0
0
0
0
0
0
0
0
0
0
0
0
0
0
0
0
0
0
0
0
0
1
7
9
14
144
183
18
161
204
18
161
204
27
165
206
27
165
206
27
165
206
27
165
206
34
167
208
38
169
209
38
169
209
43
171
210
43
171
210
51
174
211
51
174
211
51
174
211
55
176
212
55
176
212
36
154
190
13
133
170
13
130
165
13
130
165
13
133
170
13
133
170
13
133
170
13
133
170
13
133
170
13
133
170
11
109
138
5
52
67
0
0
0
0
0
0
0
0
0
0
0
0
0
0
0
0
0
0
0
0
0
0
0
0
0
0
0
0
0
0
0
0
0
0
0
0
0
0
0
0
0
0
0
0
0
0
0
0
0
0
0
3
35
44
12
123
156
18
161
204
18
161
204
18
161
204
18
161
204
18
161
204
18
161
204
27
165
206
73
183
216
70
182
216
59
177
213
55
176
212
51
174
211
43
171
210
34
167
208
27
165
206
19
147
187
1
7
9
0
0
0
0
0
0
0
0
0
0
0
0
0
0
0
0
0
0
0
0
0
0
0
0
0
0
0
0
0
0
0
0
0
0
0
0
0
0
0
0
0
0
7
70
89
18
161
204
18
161
204
18
161
204
27
165
206
27
165
206
27
165
206
33
165
206
34
167
208
38
169
209
38
169
209
43
171
210
43
171
210
51
174
211
51
174
211
51
174
211
44
166
203
18
134
170
13
130
165
13
130
165
13
130
165
13
130
165
13
130
165
13
133
170
13
133
170
13
126
161
9
88
111
3
28
35
0
0
0
0
0
0
0
0
0
0
0
0
0
0
0
0
0
0
0
0
0
0
0
0
0
0
0
0
0
0
0
0
0
0
0
0
0
0
0
0
0
0
0
0
0
0
0
0
0
0
0
2
18
22
10
98
124
17
158
202
18
161
204
18
161
204
18
161
204
18
161
204
18
161
204
18
161
204
18
161
204
70
182
216
83
186
218
73
183
216
67
180
215
59
177
213
51
174
211
43
171
210
38
169
209
27
165
206
27
165
206
7
70
89
0
0
0
0
0
0
0
0
0
0
0
0
0
0
0
0
0
0
0
0
0
0
0
0
0
0
0
0
0
0
0
0
0
0
0
0
0
0
0
1
7
9
14
141
179
18
161
204
18
161
204
18
161
204
27
165
206
27
165
206
27
165
206
34
167
208
38
169
209
38
169
209
43
171
210
43
171
210
51
174
211
51
174
211
47
168
206
25
142
178
13
126
161
13
130
165
13
130
165
13
130
165
13
130
165
13
130
165
13
130
165
11
109
138
6
59
76
1
7
9
0
0
0
0
0
0
0
0
0
0
0
0
0
0
0
0
0
0
0
0
0
0
0
0
0
0
0
0
0
0
0
0
0
0
0
0
0
0
0
0
0
0
0
0
0
0
0
0
0
0
0
1
7
9
7
74
94
15
151
193
18
161
204
18
161
204
18
161
204
18
161
204
18
161
204
18
161
204
18
161
204
18
161
204
59
177
213
91
190
220
83
186
218
77
184
217
70
182
216
59
177
213
55
176
212
51
174
211
43
171
210
34
167
208
27
165
206
19
147
187
1
7
9
0
0
0
0
0
0
0
0
0
0
0
0
0
0
0
0
0
0
0
0
0
0
0
0
0
0
0
0
0
0
0
0
0
0
0
0
7
66
84
18
161
204
18
161
204
18
161
204
27
165
206
27
165
206
27
165
206
33
165
206
34
167
208
38
169
209
38
169
209
43
171
210
43
171
210
43
171
210
32
151
188
13
130
165
13
126
161
13
126
161
13
130
165
13
130
165
13
130
165
13
126
161
9
94
120
4
41
52
0
0
0
0
0
0
0
0
0
0
0
0
0
0
0
0
0
0
0
0
0
0
0
0
0
0
0
0
0
0
0
0
0
0
0
0
0
0
0
0
0
0
0
0
0
0
0
0
0
0
0
0
0
0
0
0
0
5
49
62
14
141
179
17
158
202
17
158
202
17
155
197
15
153
196
15
153
196
15
151
193
14
146
186
14
146
186
14
146
186
14
144
183
29
150
187
76
181
213
91
190
220
83
186
218
73
183
216
67
180
215
59
177
213
51
174
211
43
171
210
38
169
209
27
165
206
27
165
206
7
66
84
0
0
0
0
0
0
0
0
0
0
0
0
0
0
0
0
0
0
0
0
0
0
0
0
0
0
0
0
0
0
0
0
0
0
0
0
14
141
179
18
161
204
18
161
204
18
161
204
27
165
206
27
165
206
27
165
206
34
167
208
38
169
209
38
169
209
43
171
210
43
171
210
37
157
194
17
129
164
13
126
161
13
126
161
13
126
161
13
126
161
13
126
161
12
117
148
7
66
84
1
11
13
0
0
0
0
0
0
0
0
0
0
0
0
0
0
0
0
0
0
0
0
0
0
0
0
0
0
0
0
0
0
0
0
0
0
0
0
0
0
0
0
0
0
0
0
0
0
0
0
0
0
0
0
0
0
0
0
0
0
0
0
2
21
27
9
90
115
14
137
174
14
144
183
14
144
183
14
144
183
14
144
183
14
144
183
14
144
183
14
144
183
14
144
183
14
144
183
14
141
179
14
141
179
18
141
179
53
167
201
83
186
218
77
184
217
70
182
216
59
177
213
55
176
212
51
174
211
38
169
209
34
167
208
27
165
206
18
141
179
0
0
0
0
0
0
0
0
0
0
0
0
0
0
0
0
0
0
0
0
0
0
0
0
0
0
0
0
0
0
0
0
0
6
59
76
18
161
204
18
161
204
18
161
204
27
165
206
27
165
206
27
165
206
27
165
206
34
167
208
38
169
209
38
169
209
33
165
206
18
134
170
12
123
156
12
123
156
12
123
156
13
126
161
12
123
156
10
98
124
5
49
62
0
0
0
0
0
0
0
0
0
0
0
0
0
0
0
0
0
0
0
0
0
0
0
0
0
0
0
0
0
0
0
0
0
0
0
0
0
0
0
0
0
0
0
0
0
0
0
0
0
0
0
0
0
0
0
0
0
0
0
0
0
0
0
0
0
0
0
0
0
0
0
0
0
0
0
0
0
0
4
41
52
9
94
120
14
137
174
14
144
183
14
144
183
14
144
183
14
144
183
14
144
183
14
144
183
14
141
179
14
141
179
14
141
179
14
141
179
27
146
182
67
180
215
73
183
216
67
180
215
59
177
213
51
174
211
43
171
210
38
169
209
27
165
206
27
165
206
6
59
76
0
0
0
0
0
0
0
0
0
0
0
0
0
0
0
0
0
0
0
0
0
0
0
0
0
0
0
0
0
0
14
137
174
18
161
204
18
161
204
18
161
204
27
165
206
27
165
206
27
165
206
34
167
208
38
169
209
33
165
206
27
146
182
12
123
156
12
123
156
12
123
156
12
123
156
12
117
148
8
77
98
2
21
27
0
0
0
0
0
0
0
0
0
0
0
0
0
0
0
0
0
0
0
0
0
0
0
0
0
0
0
0
0
0
0
0
0
0
0
0
0
0
0
0
0
0
0
0
0
0
0
0
0
0
0
0
0
0
0
0
0
0
0
0
0
0
0
0
0
0
0
0
0
0
0
0
0
0
0
0
0
0
0
0
0
0
0
0
0
0
0
0
0
0
1
7
9
5
52
67
11
105
134
14
141
179
14
144
183
14
144
183
14
141
179
14
141
179
14
141
179
14
141
179
14
141
179
14
137
174
19
137
173
46
161
197
67
180
215
59
177
213
55
176
212
51
174
211
38
169
209
34
167
208
27
165
206
18
141
179
0
0
0
0
0
0
0
0
0
0
0
0
0
0
0
0
0
0
0
0
0
0
0
0
0
0
0
6
59
76
18
161
204
18
161
204
18
161
204
27
165
206
27
165
206
27
165
206
27
165
206
33
165
206
29
150
187
12
123
156
12
123
156
12
123
156
12
123
156
11
105
134
6
59
76
1
7
9
0
0
0
0
0
0
0
0
0
0
0
0
0
0
0
0
0
0
0
0
0
0
0
0
0
0
0
0
0
0
0
0
0
0
0
0
0
0
0
0
0
0
0
0
0
0
0
0
0
0
0
0
0
0
0
0
0
0
0
0
0
0
0
0
0
0
0
0
0
0
0
0
0
0
0
0
0
0
0
0
0
0
0
0
0
0
0
0
0
0
0
0
0
0
0
0
0
0
0
0
0
0
0
0
0
1
11
13
6
56
71
11
109
138
14
141
179
14
141
179
14
141
179
14
141
179
14
137
174
14
137
174
13
133
170
13
133
170
25
142
178
58
172
206
59
177
213
51
174
211
43
171
210
38
169
209
27
165
206
27
165
206
6
56
71
0
0
0
0
0
0
0
0
0
0
0
0
0
0
0
0
0
0
0
0
0
0
0
0
13
133
170
18
161
204
18
161
204
18
161
204
27
165
206
27
165
206
27
165
206
27
156
196
17
129
164
12
119
152
12
119
152
12
117
148
8
80
102
3
28
35
0
0
0
0
0
0
0
0
0
0
0
0
0
0
0
0
0
0
0
0
0
0
0
0
0
0
0
0
0
0
0
0
0
0
0
0
0
0
0
0
0
0
0
0
0
0
0
0
0
0
0
0
0
0
0
0
0
0
0
0
0
0
0
0
0
0
0
0
0
0
0
0
0
0
0
0
0
0
0
0
0
0
0
0
0
0
0
0
0
0
0
0
0
0
0
0
0
0
0
0
0
0
0
0
0
0
0
0
0
0
0
0
0
0
0
0
0
0
0
0
0
0
0
2
18
22
7
66
84
12
117
148
14
137
174
14
137
174
13
133
170
13
133
170
13
133
170
13
130
165
13
130
165
36
154
190
51
174
211
51
174
211
38
169
209
34
167
208
27
165
206
18
134
170
0
0
0
0
0
0
0
0
0
0
0
0
0
0
0
0
0
0
0
0
0
5
52
67
18
161
204
18
161
204
18
161
204
18
161
204
27
165
206
27
165
206
19
137
173
12
119
152
12
119
152
11
109
138
7
66
84
1
11
13
0
0
0
0
0
0
0
0
0
0
0
0
0
0
0
0
0
0
0
0
0
0
0
0
0
0
0
0
0
0
0
0
0
0
0
0
0
0
0
0
0
0
0
0
0
0
0
0
0
0
0
0
0
0
0
0
0
0
0
0
0
0
0
0
0
0
0
0
0
0
0
0
0
0
0
0
0
0
0
0
0
0
0
0
0
0
0
0
0
0
0
0
0
0
0
0
0
0
0
0
0
0
0
0
0
0
0
0
0
0
0
0
0
0
0
0
0
0
0
0
0
0
0
0
0
0
0
0
0
0
0
0
0
0
0
0
0
0
3
28
35
7
74
94
12
119
152
13
133
170
13
130
165
13
130
165
13
130
165
13
126
161
19
137
173
47
168
206
43
171
210
38
169
209
27
165
206
18
161
204
5
52
67
0
0
0
0
0
0
0
0
0
0
0
0
0
0
0
0
0
0
13
130
165
18
161
204
18
161
204
18
161
204
27
165
206
18
141
179
12
119
152
12
117
148
9
90
115
4
39
50
0
0
0
0
0
0
0
0
0
0
0
0
0
0
0
0
0
0
0
0
0
0
0
0
0
0
0
0
0
0
0
0
0
0
0
0
0
0
0
0
0
0
0
0
0
0
0
0
0
0
0
0
0
0
0
0
0
0
0
0
0
0
0
0
0
0
0
0
0
0
0
0
0
0
0
0
0
0
0
0
0
0
0
0
0
0
0
0
0
0
0
0
0
0
0
0
0
0
0
0
0
0
0
0
0
0
0
0
0
0
0
0
0
0
0
0
0
0
0
0
0
0
0
0
0
0
0
0
0
0
0
0
0
0
0
0
0
0
0
0
0
0
0
0
0
0
0
0
0
0
0
0
0
0
0
0
3
31
40
8
80
102
12
119
152
13
130
165
13
126
161
13
126
161
13
126
161
32
151
188
38
169
209
34
167
208
27
165
206
13
133
170
0
0
0
0
0
0
0
0
0
0
0
0
0
0
0
5
52
67
18
161
204
18
161
204
18
161
204
19
147
187
12
123
156
11
109
138
8
72
92
2
18
22
0
0
0
0
0
0
0
0
0
0
0
0
0
0
0
0
0
0
0
0
0
0
0
0
0
0
0
0
0
0
0
0
0
0
0
0
0
0
0
0
0
0
0
0
0
0
0
0
0
0
0
0
0
0
0
0
0
0
0
0
0
0
0
0
0
0
0
0
0
0
0
0
0
0
0
0
0
0
0
0
0
0
0
0
0
0
0
0
0
0
0
0
0
0
0
0
0
0
0
0
0
0
0
0
0
0
0
0
0
0
0
0
0
0
0
0
0
0
0
0
0
0
0
0
0
0
0
0
0
0
0
0
0
0
0
0
0
0
0
0
0
0
0
0
0
0
0
0
0
0
0
0
0
0
0
0
0
0
0
0
0
0
0
0
0
0
0
0
0
0
0
4
41
52
9
90
115
12
119
152
12
123
156
12
123
156
18
134
170
33
165
206
27
165
206
18
161
204
5
49
62
0
0
0
0
0
0
0
0
0
0
0
0
13
126
161
18
161
204
17
155
197
13
130
165
9
94
120
5
49
62
0
0
0
0
0
0
0
0
0
0
0
0
0
0
0
0
0
0
0
0
0
0
0
0
0
0
0
0
0
0
0
0
0
0
0
0
0
0
0
0
0
0
0
0
0
0
0
0
0
0
0
0
0
0
0
0
0
0
0
0
0
0
0
0
0
0
0
0
0
0
0
0
0
0
0
0
0
0
0
0
0
0
0
0
0
0
0
0
0
0
0
0
0
0
0
0
0
0
0
0
0
0
0
0
0
0
0
0
0
0
0
0
0
0
0
0
0
0
0
0
0
0
0
0
0
0
0
0
0
0
0
0
0
0
0
0
0
0
0
0
0
0
0
0
0
0
0
0
0
0
0
0
0
0
0
0
0
0
0
0
0
0
0
0
0
0
0
0
0
0
0
0
0
0
0
0
0
0
0
0
0
0
0
0
0
0
1
7
9
5
46
59
9
90
115
12
119
152
12
123
156
27
146
182
27
165
206
13
130
165
0
0
0
0
0
0
0
0
0
5
46
59
17
158
202
13
133
170
8
80
102
3
28
35
0
0
0
0
0
0
0
0
0
0
0
0
0
0
0
0
0
0
0
0
0
0
0
0
0
0
0
0
0
0
0
0
0
0
0
0
0
0
0
0
0
0
0
0
0
0
0
0
0
0
0
0
0
0
0
0
0
0
0
0
0
0
0
0
0
0
0
0
0
0
0
0
0
0
0
0
0
0
0
0
0
0
0
0
0
0
0
0
0
0
0
0
0
0
0
0
0
0
0
0
0
0
0
0
0
0
0
0
0
0
0
0
0
0
0
0
0
0
0
0
0
0
0
0
0
0
0
0
0
0
0
0
0
0
0
0
0
0
0
0
0
0
0
0
0
0
0
0
0
0
0
0
0
0
0
0
0
0
0
0
0
0
0
0
0
0
0
0
0
0
0
0
0
0
0
0
0
0
0
0
0
0
0
0
0
0
0
0
0
0
0
0
0
0
0
0
0
0
0
0
0
1
11
13
5
52
67
9
94
120
17
129
164
17
155
197
5
46
59
0
0
0
0
0
0
9
88
111
6
56
71
1
7
9
0
0
0
0
0
0
0
0
0
0
0
0
0
0
0
0
0
0
0
0
0
0
0
0
0
0
0
0
0
0
0
0
0
0
0
0
0
0
0
0
0
0
0
0
0
0
0
0
0
0
0
0
0
0
0
0
0
0
0
0
0
0
0
0
0
0
0
0
0
0
0
0
0
0
0
0
0
0
0
0
0
0
0
0
0
0
0
0
0
0
0
0
0
0
0
0
0
0
0
0
0
0
0
0
0
0
0
0
0
0
0
0
0
0
0
0
0
0
0
0
0
0
0
0
0
0
0
0
0
0
0
0
0
0
0
0
0
0
0
0
0
0
0
0
0
0
0
0
0
0
0
0
0
0
0
0
0
0
0
0
0
0
0
0
0
0
0
0
0
0
0
0
0
0
0
0
0
0
0
0
0
0
0
0
0
0
0
0
0
0
0
0
0
0
0
0
0
0
0
0
0
0
0
0
0
0
0
0
0
0
0
0
0
0
0
0
2
18
22
7
66
84
9
90
115
0
0
0
